Coordinates
version=1
nRows=16
nColumns=38
inDegrees=no

Units are S.I. units (second, meters, Newtons, ...)
If the header above contains a line with 'inDegrees', this indicates whether rotational values are in degrees (yes) or radians (no).

endheader
time	pelvis_tilt	pelvis_list	pelvis_rotation	pelvis_tx	pelvis_ty	pelvis_tz	hip_flexion_r	hip_adduction_r	hip_rotation_r	knee_angle_r	ankle_angle_r	subtalar_angle_r	mtp_angle_r	hip_flexion_l	hip_adduction_l	hip_rotation_l	knee_angle_l	ankle_angle_l	subtalar_angle_l	mtp_angle_l	lumbar_extension	lumbar_bending	lumbar_rotation	arm_flex_r	arm_add_r	arm_rot_r	elbow_flex_r	pro_sup_r	wrist_flex_r	wrist_dev_r	arm_flex_l	arm_add_l	arm_rot_l	elbow_flex_l	pro_sup_l	wrist_flex_l	wrist_dev_l
1.30833	-0.013055	0.058414	-0.0802452	1.05121	1.0254	-0.321612	-0.00130844	0.0208887	0.0767746	-0.946679	-0.094786	0.0220883	5.84335e-05	0.446866	0.12078	0.0310627	-0.43912	-0.116518	-0.00697599	0.000132011	-0.244086	-0.107488	0.107619	-0.379843	-0.187278	-0.0852969	1.73273	1.45049	0.0224468	-0.0319225	-0.883186	-0.148789	-0.219172	1.951	1.57931	0.0137847	-0.0298775
1.31667	-0.00440756	0.0590433	-0.0792682	1.0515	1.02147	-0.321295	0.0155551	0.0205222	0.0729034	-1.00826	-0.0756509	0.0220883	5.84335e-05	0.435804	0.129845	0.0425104	-0.460876	-0.101896	-0.00697599	0.000132011	-0.254997	-0.110736	0.101397	-0.393794	-0.183311	-0.0894044	1.71545	1.44576	0.0224468	-0.0319225	-0.876358	-0.155109	-0.21561	1.96168	1.5725	0.0137847	-0.0298775
1.325	0.00398328	0.0597425	-0.0784836	1.05176	1.01682	-0.321146	0.0343868	0.0186823	0.0675675	-1.07039	-0.0582666	0.0220883	5.84335e-05	0.424958	0.139793	0.0561668	-0.487499	-0.0770954	-0.00697599	0.000132011	-0.26559	-0.113356	0.0951467	-0.408716	-0.179681	-0.0940107	1.69641	1.44012	0.0224468	-0.0319225	-0.867515	-0.161756	-0.210978	1.97065	1.56641	0.0137847	-0.0298775
1.33333	0.0117971	0.0604443	-0.0779684	1.05196	1.01149	-0.321156	0.0554513	0.0153037	0.0610993	-1.13262	-0.0428891	0.0220883	5.84335e-05	0.414741	0.150377	0.0708271	-0.518376	-0.0414838	-0.00697599	0.000132011	-0.275485	-0.115293	0.0887359	-0.424139	-0.176519	-0.0988042	1.67538	1.43347	0.0224468	-0.0319225	-0.8566	-0.16842	-0.205407	1.97765	1.56113	0.0137847	-0.0298775
1.34167	0.018831	0.0612859	-0.0777917	1.05205	1.00554	-0.321314	0.078965	0.0102615	0.0539716	-1.19447	-0.0294016	0.0220883	5.84335e-05	0.405535	0.161471	0.0850921	-0.55276	0.00421558	-0.00697599	0.000132011	-0.284411	-0.116739	0.0819718	-0.439478	-0.173837	-0.103512	1.65192	1.42585	0.0224468	-0.0319225	-0.843485	-0.17487	-0.199029	1.98241	1.55667	0.0137847	-0.0298775
1.35	0.0249664	0.0625874	-0.0780118	1.05198	0.999082	-0.321576	0.105069	0.00338224	0.0467773	-1.25542	-0.0174393	0.0220883	5.84335e-05	0.397602	0.173089	0.0976134	-0.589685	0.0578501	-0.00697599	0.000132011	-0.292231	-0.118136	0.0746151	-0.454051	-0.171504	-0.107925	1.62538	1.41746	0.0224468	-0.0319225	-0.827969	-0.180999	-0.191959	1.98472	1.55302	0.0137847	-0.0298775
1.35833	0.0301568	0.0648015	-0.0786606	1.05171	0.992261	-0.32189	0.133809	-0.00551027	0.0401775	-1.31486	-0.00653452	0.0220883	5.84335e-05	0.391016	0.18536	0.10733	-0.627949	0.116158	-0.00697599	0.000132011	-0.298928	-0.120124	0.0663983	-0.467127	-0.169245	-0.111919	1.59496	1.40876	0.0224468	-0.0319225	-0.809797	-0.186834	-0.184301	1.98447	1.55024	0.0137847	-0.0298775
1.36667	0.0344053	0.0684104	-0.0797184	1.05123	0.98526	-0.322204	0.165122	-0.0165144	0.0348114	-1.37203	0.00375429	0.0220883	5.84335e-05	0.385621	0.19845	0.113638	-0.666161	0.175391	-0.00697599	0.000132011	-0.304584	-0.123407	0.0570555	-0.478004	-0.166672	-0.115483	1.55984	1.40041	0.0224468	-0.0319225	-0.7887	-0.192529	-0.176132	1.98164	1.54856	0.0137847	-0.0298775
1.375	0.037745	0.0737741	-0.0810906	1.05054	0.978306	-0.322479	0.198818	-0.0295433	0.0311877	-1.42607	0.0137505	0.0220883	5.84335e-05	0.381036	0.212439	0.116471	-0.702866	0.232012	-0.00697599	0.000132011	-0.309342	-0.128559	0.0463682	-0.486119	-0.16334	-0.118732	1.51929	1.39319	0.0224468	-0.0319225	-0.764464	-0.198328	-0.167501	1.97643	1.54841	0.0137847	-0.0298775
1.38333	0.040274	0.0809738	-0.0825879	1.04965	0.97164	-0.32269	0.234576	-0.0442254	0.0295791	-1.47599	0.0236217	0.0220883	5.84335e-05	0.376692	0.227192	0.116292	-0.736671	0.283266	-0.00697599	0.000132011	-0.313354	-0.13582	0.0342183	-0.491161	-0.158839	-0.121911	1.47299	1.38783	0.0224468	-0.0319225	-0.736997	-0.2045	-0.158425	1.96924	1.5504	0.0137847	-0.0298775
1.39167	0.0420694	0.0897499	-0.0839546	1.04859	0.965504	-0.322829	0.271926	-0.0598506	0.0299399	-1.52073	0.0333966	0.0220883	5.84335e-05	0.371899	0.242279	0.114001	-0.766388	0.327476	-0.00697599	0.000132011	-0.316772	-0.14492	0.0206292	-0.493168	-0.152883	-0.12536	1.42114	1.38478	0.0224468	-0.0319225	-0.706396	-0.211258	-0.1489	1.96074	1.55527	0.0137847	-0.0298775
1.4	0.0431422	0.0994169	-0.0848865	1.04741	0.960101	-0.322899	0.310269	-0.0754343	0.0318918	-1.55927	0.043017	0.0220883	5.84335e-05	0.365918	0.256993	0.110793	-0.791123	0.364053	-0.00697599	0.000132011	-0.319724	-0.155081	0.0057841	-0.492572	-0.145398	-0.129462	1.36466	1.384	0.0224468	-0.0319225	-0.672997	-0.218685	-0.138926	1.95187	1.56368	0.0137847	-0.0298775
1.40833	0.0434745	0.108987	-0.0850796	1.04617	0.955578	-0.322918	0.348932	-0.0898582	0.0347666	-1.59065	0.0523973	0.0220883	5.84335e-05	0.358071	0.270454	0.10797	-0.810284	0.393291	-0.00697599	0.000132011	-0.322265	-0.165113	-0.00998943	-0.490166	-0.136556	-0.134561	1.30518	1.38494	0.0224468	-0.0319225	-0.637386	-0.226684	-0.12855	1.94374	1.57614	0.0137847	-0.0298775
1.41667	0.0430171	0.117362	-0.0842906	1.0449	0.952021	-0.322912	0.387227	-0.102077	0.037708	-1.61407	0.0614668	0.0220883	5.84335e-05	0.347815	0.281768	0.106741	-0.823555	0.416033	-0.00697599	0.000132011	-0.324349	-0.17364	-0.0262655	-0.487002	-0.126767	-0.140899	1.24492	1.38651	0.0224468	-0.0319225	-0.600374	-0.23497	-0.117892	1.93757	1.59276	0.0137847	-0.0298775
1.425	0.0416907	0.123542	-0.0823923	1.04364	0.949473	-0.322907	0.424523	-0.111322	0.039805	-1.62893	0.0701778	0.0220883	5.84335e-05	0.334811	0.290184	0.108024	-0.830828	0.43331	-0.00697599	0.000132011	-0.325825	-0.17938	-0.042582	-0.484232	-0.116601	-0.148557	1.1864	1.38729	0.0224468	-0.0319225	-0.562943	-0.243111	-0.107169	1.93451	1.6132	0.0137847	-0.0298775
1.43333	0.0393893	0.12679	-0.0794069	1.04244	0.947949	-0.322932	0.460283	-0.117215	0.0402229	-1.63486	0.078482	0.0220883	5.84335e-05	0.318948	0.295207	0.112312	-0.832159	0.446039	-0.00697599	0.000132011	-0.326461	-0.181386	-0.0585035	-0.482933	-0.106692	-0.157438	1.13216	1.38572	0.0224468	-0.0319225	-0.526151	-0.250607	-0.0966725	1.93556	1.6366	0.0137847	-0.0298775
